<svg xmlns="http://www.w3.org/2000/svg" viewBox="0 0 344.69 143.36"><defs><style>.a{fill:#475447;}.b{fill:#3a443a;}.c{fill:#fff;}.d{fill:#e4eada;}.e{fill:#adbf94;}.f{fill:#9db580;}.g{fill:#d3ddc3;}</style></defs><title>icon_zola</title><path class="a" d="M94.4,143.36C82,110,77,56.47,89,30.35a52.78,52.78,0,0,1,5.17-8.87A52,52,0,0,0,4.75,73.75c12,26.12,55.8,57.22,89.2,69.61" transform="translate(0 0)"/><path class="b" d="M94.4,143.36C82,110,77,56.47,89,30.35a52.78,52.78,0,0,1,5.17-8.87,52.15,52.15,0,0,1,5.18,8.87c12,26.12,7,79.62-5.4,113" transform="translate(0 0)"/><path class="c" d="M250.29,143.36c12.39-33.39,17.39-86.89,5.41-113a52.15,52.15,0,0,0-5.18-8.87,52,52,0,0,1,89.42,52.27c-12,26.12-55.8,57.22-89.19,69.61" transform="translate(0 0)"/><path class="d" d="M250.75,143.36c-12.39-33.39-17.39-86.89-5.41-113a52.15,52.15,0,0,1,5.18-8.87,52.15,52.15,0,0,1,5.18,8.87c12,26.12,7,79.62-5.41,113" transform="translate(0 0)"/><path class="e" d="M172.35,90.5a73.29,73.29,0,0,0,11.24-16.75A52.05,52.05,0,0,0,172.35,14.5,52.07,52.07,0,0,0,161.1,73.75,73.35,73.35,0,0,0,172.35,90.5Z" transform="translate(0 0)"/><path class="f" d="M94.4,143.36c26.44-9.81,59.41-31.35,77.95-52.86A73.14,73.14,0,0,1,161.1,73.75a52.06,52.06,0,0,1,11.25-59.24,52.07,52.07,0,0,0-78.18,7,52.15,52.15,0,0,1,5.18,8.87c12,26.12,7,79.62-5.4,113" transform="translate(0 0)"/><path class="g" d="M250.29,143.36c-26.44-9.81-59.41-31.35-77.94-52.86a73.07,73.07,0,0,0,11.24-16.75,52,52,0,0,0-11.24-59.24,52.06,52.06,0,0,1,78.17,7,52.15,52.15,0,0,0-5.18,8.87c-12,26.12-7,79.62,5.41,113" transform="translate(0 0)"/></svg>