<svg xmlns="http://www.w3.org/2000/svg" viewBox="0 0 1007.72 277.66"><defs><style>.a{fill:#e0e6e0;}.b{fill:#606647;}.c{fill:#eeba57;}.d{fill:#973030;}.e{fill:#402727;}.f{fill:#bcc5c5;}.g{fill:#c56241;}.h{fill:#fff;}.i{fill:#927f41;}.j{fill:#be9c47;}.k{fill:#3a442e;}.l{fill:#29341b;}</style></defs><title>icon_forest</title><path class="a" d="M323.72,203.56V134.3a49,49,0,0,1,49-49h75a41,41,0,0,0,27.42-10.52l36.33-32.69a40,40,0,0,1,26.76-10.27h69.13a21.61,21.61,0,0,0,15.85-6.92l4.47-4.83A62.64,62.64,0,0,1,673.64,0h82.74A63,63,0,0,1,802,19.55l51.46,54a25,25,0,0,0,18.1,7.75h27a34,34,0,0,1,34,34v88.24Z"/><path class="a" d="M186,91.13H137.13A54.27,54.27,0,0,0,97.84,108l-44.3,46.51A21.53,21.53,0,0,1,38,161.16H29.36A29.28,29.28,0,0,0,.08,190.44v29.21H290.93V163.76A32.72,32.72,0,0,0,258.2,131H216.1v-9.77A30.14,30.14,0,0,0,186,91.13Z"/><circle class="b" cx="270.22" cy="167.85" r="15.59"/><circle class="c" cx="71.02" cy="185.75" r="15.74"/><path class="c" d="M107.91,156.72a16.78,16.78,0,0,1,32.31-5.78,16.77,16.77,0,1,1-20.85,22.23c-.42-.14-.83-.29-1.24-.47h0a16.76,16.76,0,1,1-10.21-16"/><polygon class="d" points="265.34 114.25 259.5 120.16 189.44 120.16 195.29 114.25 265.34 114.25"/><polygon class="e" points="265.34 114.25 195.29 114.25 159.99 79.6 224.34 79.6 230.03 79.6 241.89 91.24 241.89 91.25 247.68 96.93 265.34 114.25"/><path class="f" d="M259.5,120.16V167H241.69V137.58H230V167H189.45V128.87L160,99.94l-29.47,28.93v-8.71L160,91.25l29.46,28.91ZM218,149.24V137.58H206.37v11.66Z"/><polygon class="d" points="247.68 73.61 247.68 96.93 241.89 91.25 241.89 91.24 241.89 73.61 247.68 73.61"/><polygon class="g" points="241.89 73.61 241.89 91.24 230.03 79.6 224.34 79.6 224.34 73.61 241.89 73.61"/><rect class="e" x="230.03" y="137.58" width="11.66" height="29.36"/><rect class="e" x="206.37" y="137.58" width="11.66" height="11.66"/><polygon class="g" points="195.29 114.25 189.44 120.16 159.99 91.25 130.52 120.16 124.67 114.25 159.99 79.6 195.29 114.25"/><path class="h" d="M189.45,128.87V167H130.52V128.87L160,99.94Zm-23.63,20.37V137.58H154.16v11.66Z"/><rect class="f" x="154.16" y="137.58" width="11.66" height="11.66"/><path class="i" d="M40.45,140.49S60,178.06,65.81,219.61H31.37c0-55,8.79-78.39,9.07-79.11Z"/><path class="j" d="M40.44,140.5c-.28.72-9.07,24.09-9.07,79.11H15.09C20.79,178.59,40,141.43,40.44,140.5Z"/><polygon class="b" points="88.28 68.08 116.8 108.29 100.43 108.29 116.8 131.89 100.43 131.89 116.8 155.27 93.84 155.27 82.33 155.27 80.15 155.27 84.67 132.25 79.53 132.09 84.67 108.76 79.69 108.61 88.28 68.08"/><polygon class="d" points="93.84 155.27 93.84 219.02 88.28 219.02 88.28 161.17 82.33 161.17 82.33 155.27 93.84 155.27"/><rect class="g" x="82.33" y="161.17" width="5.95" height="57.85"/><polygon class="i" points="88.28 68.08 79.69 108.61 84.67 108.76 79.53 132.09 84.67 132.25 80.15 155.27 59.76 155.27 76.12 131.89 59.76 131.89 76.12 108.29 59.76 108.29 88.28 68.08"/><path class="b" d="M193,166.7a132,132,0,0,0-8.41-11.45s8.56,1.93,13.2,5.73h0c4.65-3.8,13.21-5.72,13.21-5.72a129.72,129.72,0,0,0-8.41,11.45Z"/><path class="b" d="M18.88,219.61a130.65,130.65,0,0,1,8.42-11.45s-8.56,1.93-13.21,5.73h0c-4.64-3.8-13.2-5.73-13.2-5.73A133.14,133.14,0,0,1,9.3,219.61Z"/><rect class="j" x="50.98" y="208.15" width="4.3" height="4.3" transform="translate(106.25 420.6) rotate(-180)"/><circle class="c" cx="17.52" cy="95.78" r="10.98"/><path class="b" d="M279.09,225.34a130.86,130.86,0,0,0-8.41-11.46s8.56,1.93,13.21,5.73h0c4.64-3.8,13.2-5.73,13.2-5.73a132,132,0,0,0-8.41,11.45Z"/><path class="i" d="M363.57,225.45H265.88a35.72,35.72,0,0,0-24.3,9.3L194.24,277.7H95.32L60.71,243.29h-23v-.1c.36-.38,20-20.29,33.62-34.13A43.92,43.92,0,0,1,102.65,196h14L141,176.13a42.25,42.25,0,0,1,23.77-9.43h59.09l7.35,7.38a2.59,2.59,0,0,1-1.83,4.41H192.91a7.74,7.74,0,0,0-5.47,13.22l34.81,34.79h24l-33.35-33.32a3.44,3.44,0,0,1,2.43-5.88h34.34a7.75,7.75,0,0,0,5.48-13.23l-7.33-7.37h11.67a40.55,40.55,0,0,1,27.33,10.61L299.58,189a24.14,24.14,0,0,0,12,5.93l20.87,3.79a15.64,15.64,0,0,1,8.05,4.14Z"/><path class="j" d="M255.11,174.07a7.75,7.75,0,0,1-5.48,13.23H215.29a3.44,3.44,0,0,0-2.43,5.88l33.35,33.32h-24l-34.81-34.79a7.74,7.74,0,0,1,5.47-13.22h36.42a2.59,2.59,0,0,0,1.83-4.41l-7.35-7.38h24Z"/><path class="j" d="M129.32,166.7h35.4A42.25,42.25,0,0,0,141,176.13L116.7,196h-14a43.92,43.92,0,0,0-31.28,13.08c-13.64,13.84-33.26,33.75-33.62,34.13v.1H2.49l34.28-34.82a43.1,43.1,0,0,1,30.68-12.85h7.46a17.28,17.28,0,0,0,10.9-3.89l20.6-16.86A36.16,36.16,0,0,1,129.32,166.7Z"/><path class="b" d="M124.66,150.82v0s19.58,35.42,25.37,74.57h-31.9C120,177.5,124.53,151.62,124.66,150.82Z"/><path class="i" d="M124.66,150.82c-.13.8-4.69,26.68-6.52,74.55H99.31C105,186.73,124.16,151.72,124.66,150.82Z"/><circle class="k" cx="77.74" cy="231.03" r="17.07"/><circle class="k" cx="150.04" cy="202.59" r="16.77"/><circle class="b" cx="196.03" cy="222.16" r="16.77"/><path class="f" d="M225.74,249.05l-31.5,28.64H95.32l0-.05,17.8-17.89L90.25,236.87l11.47-11.52h35.54l22.48-22.76h18.19Zm-100.38-.57,8.4-8.16H117Z"/><polygon class="a" points="159.74 202.59 137.26 225.35 113.47 225.35 135.95 202.59 159.74 202.59"/><polygon class="a" points="133.76 240.32 125.36 248.48 116.98 240.32 133.76 240.32"/><polygon class="a" points="90.25 236.87 113.07 259.75 95.27 277.64 60.68 243.26 78.5 225.35 101.72 225.35 90.25 236.87"/><line class="b" x1="325.05" y1="226.68" x2="325.05" y2="226.68"/><path class="l" d="M263.31,225.56a36.2,36.2,0,0,0-12.72,3.22c-.8-31.69-5.67-53.56-5.67-53.56A300,300,0,0,1,263.31,225.56Z"/><path class="k" d="M250.59,228.78h0a36.16,36.16,0,0,0-9.19,6.06l-20.47,18.58c5.29-40.37,24-78.21,24-78.21S249.79,197.09,250.59,228.78Z"/><path class="b" d="M18.19,243.29H60.68l5.95,5.91a17.07,17.07,0,1,0-28.17-18.15l-.34-.07a17.68,17.68,0,0,0-3.44-.34A17.06,17.06,0,0,0,18.19,243.29Z"/><path class="b" d="M215.47,205.24a258.34,258.34,0,0,1,16.37,38.29l-22.15,20.1C211.79,226,215.37,205.79,215.47,205.24Z"/><path class="i" d="M215.47,205.24c-.1.55-3.68,20.71-5.78,58.39l-15.48,14h-3.78C196.54,239.66,215.18,205.76,215.47,205.24Z"/><path class="l" d="M185.07,277.7H163.75c-.63-37.44-.63-57.37-.63-57.37A261.59,261.59,0,0,1,185.07,277.7Z"/><path class="k" d="M163.12,220.33s0,19.93.63,57.37H141.16A261.9,261.9,0,0,1,163.12,220.33Z"/><path class="j" d="M152.57,277.7H119.32a16.3,16.3,0,0,1-.15-2.21,16.77,16.77,0,1,1,33.54,0,15.9,15.9,0,0,1-.14,2.19"/><path class="b" d="M173.27,277.7h20.94L205,267.88a16.77,16.77,0,1,0-31.76,9.82Z"/><polygon class="b" points="321.07 73.24 351.75 116.49 334.14 116.49 351.75 141.89 334.14 141.89 351.75 167.03 327.05 167.03 314.67 167.03 312.32 167.03 320.85 142.27 314.67 142.1 320.85 117.01 314.83 116.84 321.07 73.24"/><polygon class="d" points="327.05 167.03 327.05 213.58 321.07 213.58 321.07 173.38 314.67 173.38 314.67 167.03 327.05 167.03"/><rect class="g" x="314.67" y="173.38" width="6.4" height="40.2"/><polygon class="i" points="321.07 73.24 314.83 116.84 320.85 117.01 314.67 142.1 320.85 142.27 312.32 167.03 290.4 167.03 308 141.89 290.4 141.89 308 116.49 290.4 116.49 321.07 73.24"/><circle class="c" cx="737.24" cy="162.64" r="17.05"/><circle class="c" cx="710.94" cy="165.41" r="17.05"/><path class="c" d="M411.56,135.05a19.48,19.48,0,0,1,33.87-17.45,19.48,19.48,0,1,1-15.53,31.8c-.52,0-1-.05-1.54-.1h0a19.45,19.45,0,1,1-16.8-14.26"/><circle class="k" cx="602.55" cy="130.98" r="19.48"/><circle class="b" cx="667.06" cy="165.41" r="19.82"/><circle class="j" cx="807.06" cy="140.04" r="19.48"/><path class="j" d="M620.53,173.1c2.15-62.91,7.6-96.46,7.6-96.46s22.75,45.81,29.47,96.46Z"/><path class="c" d="M628.13,76.64s-5.45,33.55-7.6,96.46H598.64C605.36,122.45,628.13,76.64,628.13,76.64Z"/><rect class="c" x="633.98" y="130.26" width="5.56" height="5.56" transform="translate(1273.51 266.08) rotate(-180)"/><path class="l" d="M920.89,140.29H893.94a852.49,852.49,0,0,1,2.12-86.6S917.46,97,920.89,140.29Z"/><path class="k" d="M893.94,140.29H871.22c3.45-43.3,24.84-86.6,24.84-86.6A852.49,852.49,0,0,0,893.94,140.29Z"/><polygon class="b" points="750.75 36.49 781.42 79.74 763.83 79.74 781.42 105.14 763.83 105.14 781.42 130.28 756.73 130.28 744.35 130.28 742 130.28 750.53 105.52 744.35 105.35 750.53 80.26 744.51 80.09 750.75 36.49"/><polygon class="d" points="756.73 130.28 756.73 176.83 750.75 176.83 750.75 136.63 744.35 136.63 744.35 130.28 756.73 130.28"/><rect class="g" x="744.35" y="136.63" width="6.4" height="40.2"/><polygon class="i" points="750.75 36.49 744.51 80.09 750.53 80.26 744.35 105.35 750.53 105.52 742 130.28 720.08 130.28 737.68 105.14 720.08 105.14 737.68 79.74 720.08 79.74 750.75 36.49"/><polygon class="b" points="680.42 19.02 713.54 65.7 694.54 65.7 713.54 93.13 694.54 93.13 713.54 120.28 686.88 120.28 673.51 120.28 670.99 120.28 676.22 93.53 670.26 93.36 676.22 66.27 670.44 66.08 680.42 19.02"/><polygon class="d" points="686.88 120.28 686.88 194.31 680.42 194.31 680.42 127.13 673.51 127.13 673.51 120.28 686.88 120.28"/><rect class="g" x="673.51" y="127.13" width="6.91" height="67.18"/><polygon class="i" points="680.42 19.02 670.44 66.08 676.22 66.27 670.26 93.36 676.22 93.53 670.99 120.28 647.31 120.28 666.31 93.13 647.31 93.13 666.31 65.7 647.31 65.7 680.42 19.02"/><path class="i" d="M408.74,80.45s22.74,43.63,29.45,91.89h-40c0-63.91,10.2-91,10.52-91.87Z"/><path class="j" d="M408.73,80.47c-.32.83-10.52,28-10.52,91.87H379.29C385.93,124.69,408.17,81.55,408.73,80.47Z"/><path class="b" d="M882.29,140.29H850.87A991.54,991.54,0,0,1,853.35,39.4S878.28,89.84,882.29,140.29Z"/><path class="i" d="M850.87,140.29H824.42c4-50.45,28.93-100.89,28.93-100.89A991.54,991.54,0,0,0,850.87,140.29Z"/><path class="i" d="M965.67,153.76l41.84,41.89-13.21,13.4-16.07,16.31h-97A36,36,0,0,0,855.69,236l-27.9,28H736.22l-23.67-23.62v-.09H625A21.42,21.42,0,0,0,637.86,234l18.27-18.54a51,51,0,0,1,36.35-15.21h9.11a20.13,20.13,0,0,0,12.76-4.56l36.4-29.71,18.82-15.36A46.8,46.8,0,0,1,799.16,140H932.55A46.79,46.79,0,0,1,965.67,153.76Z"/><path class="j" d="M935.08,225.4A36,36,0,0,0,909.59,236l-17.36,17.4a36,36,0,0,1-25.48,10.57h-39l27.9-28a36,36,0,0,1,25.5-10.59h53.89Z"/><path class="i" d="M676.83,189.54,670.15,195a20,20,0,0,1-12.67,4.52h-8.65a50,50,0,0,0-35.63,14.93l-19,19.33a21.62,21.62,0,0,1-15.39,6.44v.15H545.1A36,36,0,0,0,521,249.65l-19.31,17.43h-91v-.14L368.86,225.4h-27c.42-.44,23.2-23.56,39-39.63a51,51,0,0,1,36.33-15.2h9.11A20.14,20.14,0,0,0,439.09,166l22.6-18.49a49,49,0,0,1,31-11.07h106.7a47.06,47.06,0,0,1,31.73,12.32Z"/><path class="j" d="M622.52,240.38H578.78v-.15a21.62,21.62,0,0,0,15.39-6.44l19-19.33a50,50,0,0,1,35.63-14.93h8.65A20,20,0,0,0,670.15,195l6.68-5.47,17.25-14.11a42,42,0,0,1,26.59-9.49h30.08l-36.4,29.71a20.13,20.13,0,0,1-12.76,4.56h-9.11a51,51,0,0,0-36.35,15.21L637.86,234A21.42,21.42,0,0,1,625,240.23,20.51,20.51,0,0,1,622.52,240.38Z"/><path class="j" d="M448.3,136.45h44.42a49,49,0,0,0-31,11.07L439.09,166a20.14,20.14,0,0,1-12.77,4.56h-9.11a51,51,0,0,0-36.33,15.2c-15.84,16.07-38.62,39.19-39,39.63H301L340.82,185A50,50,0,0,1,376.45,170h8.66a20,20,0,0,0,12.66-4.52l23.93-19.58A42,42,0,0,1,448.3,136.45Z"/><path class="j" d="M531.46,188.89l-21.61-21.56a4,4,0,0,1,2.83-6.83H583.5a9,9,0,0,0,6.36-15.37l-8.72-8.68H553.31l8.73,8.69a3,3,0,0,1-2.12,5.12H486.68a9,9,0,0,0-6.36,15.36l23.31,23.27Z"/><path class="j" d="M877.58,192.73,892.33,178H851.84a9,9,0,0,1-6.36-15.36l22.3-22.26,28.06-.24-22.54,22.5a3,3,0,0,0,2.12,5.12h37.51A7.2,7.2,0,0,1,918,180L905.3,192.74Z"/><path class="l" d="M857.73,192.88H834.44C838.62,137.13,829,93.14,828.8,92,829.4,93.24,853.77,143.07,857.73,192.88Z"/><path class="k" d="M828.8,92c.24,1.13,9.82,45.12,5.64,100.87H799.86C803.87,142.44,828.79,92,828.79,92A0,0,0,0,0,828.8,92Z"/><path class="b" d="M371.2,138.65v0s22.74,41.12,29.45,86.6h-37C365.74,169.62,371,139.58,371.2,138.65Z"/><path class="i" d="M371.2,138.65c-.16.93-5.46,31-7.58,86.58H341.76C348.38,180.34,370.62,139.7,371.2,138.65Z"/><path class="l" d="M696.51,240H668.16c-1.1-56.33-1.1-86.59-1.1-86.59S689.8,194.57,696.51,240Z"/><path class="k" d="M667.06,153.45s0,30.26,1.1,86.59H637.61C644.32,194.57,667.06,153.45,667.06,153.45Z"/><path class="b" d="M703,153.47a0,0,0,0,0,0,0s22.74,41.13,29.45,86.6h-37C697.49,184.45,702.79,154.4,703,153.47Z"/><path class="i" d="M703,153.47c-.16.93-5.46,31-7.58,86.58H673.51C680.13,195.17,702.37,154.52,703,153.47Z"/><polygon class="d" points="975.89 160.12 975.89 196.04 969.27 196.04 969.27 166.72 962.45 166.72 962.45 160.12 975.89 160.12"/><path class="j" d="M969.27,70.73s22.8,38.94,26.47,89.39H955.63c3.81-55.61,13.34-88.36,13.63-89.37Z"/><rect class="g" x="962.45" y="166.72" width="6.82" height="29.32"/><path class="c" d="M969.26,70.75c-.29,1-9.82,33.76-13.63,89.37H942.8C946.42,110.35,968.66,71.78,969.26,70.75Z"/><rect class="c" x="975.88" y="143.31" width="4.99" height="4.99" transform="translate(1956.75 291.6) rotate(-180)"/><circle class="k" cx="413.98" cy="202.26" r="19.72"/><circle class="k" cx="550.43" cy="185.91" r="15.63"/><circle class="b" cx="588.83" cy="204.89" r="19.48"/><circle class="b" cx="565.66" cy="195.97" r="15.23"/><circle class="k" cx="390.09" cy="210.35" r="19.48"/><path class="b" d="M383.39,225.41a19.83,19.83,0,1,0-36.68-15.07l-.39-.08a19.43,19.43,0,0,0-4-.4A19.83,19.83,0,0,0,323,225.4Z"/><circle class="k" cx="763.02" cy="209.05" r="19.82"/><path class="b" d="M727.3,214.28a13,13,0,1,1,3.5,7.9h0a12.91,12.91,0,1,1-3.5-7.89"/><path class="k" d="M944.43,185.51A19.48,19.48,0,1,0,939,206.87h0c.18.48.37,1,.59,1.42A19.5,19.5,0,0,0,940,225.4H974.6a19.53,19.53,0,0,0,.4-17.15,19.48,19.48,0,0,0-30.58-22.75"/><path class="b" d="M994.08,209.28a15.66,15.66,0,1,0-25.91,16.09h10.06Z"/><polygon class="a" points="480.52 188.89 461.83 207.73 461.83 207.77 435.1 207.77 435.1 207.73 453.78 188.89 480.52 188.89"/><polygon class="a" points="452.27 225.4 442.53 234.86 432.78 225.4 452.27 225.4"/><polygon class="a" points="427.28 250.18 410.67 266.72 410.49 266.91 368.86 225.4 386.13 207.77 412.86 207.77 398.92 222 427.28 250.18"/><path class="f" d="M410.67,266.72l16.61-16.54L398.92,222l13.94-14.23h49v0l18.69-18.84h81.07l38.8,38.58-6.22,6.32a21.62,21.62,0,0,1-15.39,6.44l-33.68.15A36,36,0,0,0,521,249.66l-19.31,17.43h-91l-.18-.18Zm31.86-31.86,9.74-9.46H432.78Z"/><path class="f" d="M929.74,192.73l32.55,32.63h-81.1A36,36,0,0,0,855.69,236l-27.9,28H736.26l14-14.05-14-14,19.26-19.35h39.73l23.69-23.8Z"/><polygon class="a" points="818.91 192.73 795.22 216.53 775.97 216.53 799.8 192.73 818.91 192.73"/><polygon class="a" points="755.49 216.53 736.23 235.88 750.27 249.89 736.26 263.94 736.22 263.94 712.55 240.32 736.38 216.53 755.49 216.53"/><path class="b" d="M537.19,136.44a153.76,153.76,0,0,0-9.77-13.3s9.94,2.24,15.33,6.65h0c5.4-4.41,15.34-6.65,15.34-6.65a152.14,152.14,0,0,0-9.77,13.3Z"/><path class="b" d="M586.09,240.38a153.76,153.76,0,0,1,9.77-13.3s-9.94,2.24-15.34,6.65h0c-5.39-4.41-15.34-6.65-15.34-6.65A152,152,0,0,1,575,240.38Z"/><path class="b" d="M914.58,140a150.85,150.85,0,0,0-9.78-13.3s10,2.24,15.34,6.65h0c5.4-4.41,15.34-6.65,15.34-6.65a152.14,152.14,0,0,0-9.77,13.3Z"/><path class="j" d="M560.71,240.25a19.13,19.13,0,0,0-4.58-5.74,19.47,19.47,0,0,0-27.46,2.12,20,20,0,0,0-2.29,3.31h0l-.31-.27a19.49,19.49,0,0,0-27.47,2.13,19.13,19.13,0,0,0-2.69,4.09h0A19.48,19.48,0,0,0,467,267.09h34.7L521,249.65a36,36,0,0,1,24.12-9.27l15.65-.15"/><rect class="k" x="901.63" y="112.52" width="4.99" height="4.99" transform="translate(1808.25 230.02) rotate(-180)"/><rect class="i" x="376.8" y="178.12" width="4.99" height="4.99" transform="translate(758.59 361.22) rotate(-180)"/><rect class="i" x="868.73" y="128.48" width="4.99" height="4.99" transform="translate(1742.45 261.95) rotate(-180)"/><rect class="i" x="710.06" y="206.55" width="4.99" height="4.99" transform="translate(1425.1 418.1) rotate(-180)"/><rect class="j" x="415.25" y="130.55" width="4.99" height="4.99" transform="translate(835.48 266.08) rotate(-180)"/><path class="i" d="M480.75,267.09h20.94l10.82-9.81a16.77,16.77,0,1,0-31.76,9.81Z"/></svg>