<svg xmlns="http://www.w3.org/2000/svg" viewBox="0 0 706 260"><defs><style>.a{fill:#e0e6e0;}.b{fill:#eeba57;}.c{fill:#3a442e;}.d{fill:#606647;}.e{fill:#be9c47;}.f{fill:#29341b;}.g{fill:#973030;}.h{fill:#c56241;}.i{fill:#927f41;}.j{fill:#bcc5c5;}</style></defs><title>icon_forest</title><path class="a" d="M22.27,212.3v-48a49,49,0,0,1,49-49h75a41,41,0,0,0,27.42-10.53L210,72.12a40,40,0,0,1,26.76-10.27h69.13a21.58,21.58,0,0,0,15.85-6.92l4.47-4.83A62.67,62.67,0,0,1,372.19,30h82.74a63,63,0,0,1,45.61,19.54l51.46,54a25,25,0,0,0,18.1,7.76h27a34,34,0,0,1,34,34V212.3Z"/><circle class="b" cx="435.79" cy="155.73" r="17.05"/><circle class="b" cx="409.49" cy="158.5" r="17.05"/><path class="b" d="M110.11,128.14A19.48,19.48,0,0,1,144,110.69a19.48,19.48,0,1,1-15.53,31.8c-.52,0-1,0-1.54-.1h0a19.45,19.45,0,1,1-16.8-14.26"/><circle class="c" cx="301.1" cy="124.07" r="19.48"/><circle class="d" cx="365.61" cy="158.5" r="19.82"/><circle class="e" cx="505.61" cy="133.13" r="19.48"/><path class="e" d="M326.67,69.72s22.76,45.82,29.48,96.46H319.07C321.22,103.27,326.67,69.72,326.67,69.72Z"/><path class="b" d="M326.67,69.72s-5.45,33.55-7.6,96.46H297.19C303.91,115.54,326.67,69.72,326.67,69.72Z"/><rect class="b" x="332.53" y="123.35" width="5.56" height="5.56" transform="translate(670.61 252.26) rotate(-180)"/><path class="f" d="M619.45,133.37h-27a850.18,850.18,0,0,1,2.13-86.58S616,90.08,619.45,133.37Z"/><path class="c" d="M592.48,133.37h-22.7c3.43-43.29,24.83-86.58,24.83-86.58A850.18,850.18,0,0,0,592.48,133.37Z"/><polygon class="d" points="449.3 29.59 479.97 72.84 462.37 72.84 479.97 98.22 462.37 98.22 479.97 123.37 455.28 123.37 442.9 123.37 440.56 123.37 449.09 98.61 442.9 98.44 449.09 73.34 443.07 73.18 449.3 29.59"/><polygon class="g" points="455.28 123.37 455.28 169.92 449.3 169.92 449.3 129.72 442.9 129.72 442.9 123.37 455.28 123.37"/><rect class="h" x="442.9" y="129.72" width="6.4" height="40.2"/><polygon class="i" points="449.3 29.59 443.07 73.18 449.09 73.34 442.9 98.44 449.09 98.61 440.56 123.37 418.62 123.37 436.22 98.22 418.62 98.22 436.22 72.84 418.62 72.84 449.3 29.59"/><polygon class="d" points="160.38 -0.24 191.05 43 173.45 43 191.05 68.39 173.45 68.39 191.05 93.54 166.36 93.54 153.98 93.54 151.64 93.54 160.17 68.77 153.98 68.61 160.17 43.51 154.15 43.35 160.38 -0.24"/><polygon class="g" points="166.36 93.54 166.36 140.09 160.38 140.09 160.38 99.89 153.98 99.89 153.98 93.54 166.36 93.54"/><rect class="h" x="153.98" y="99.89" width="6.4" height="40.2"/><polygon class="i" points="160.38 -0.24 154.15 43.35 160.17 43.51 153.98 68.61 160.17 68.77 151.64 93.54 129.7 93.54 147.3 68.39 129.7 68.39 147.3 43 129.7 43 160.38 -0.24"/><polygon class="d" points="378.97 12.12 412.09 58.8 393.09 58.8 412.09 86.22 393.09 86.22 412.09 113.37 385.43 113.37 372.06 113.37 369.54 113.37 374.77 86.63 368.81 86.45 374.77 59.36 368.99 59.18 378.97 12.12"/><polygon class="g" points="385.43 113.37 385.43 187.4 378.97 187.4 378.97 120.22 372.06 120.22 372.06 113.37 385.43 113.37"/><rect class="h" x="372.06" y="120.22" width="6.91" height="67.18"/><polygon class="i" points="378.97 12.12 368.99 59.18 374.77 59.36 368.81 86.45 374.77 86.63 369.54 113.37 345.86 113.37 364.86 86.22 345.86 86.22 364.86 58.8 345.86 58.8 378.97 12.12"/><path class="i" d="M107.28,73.56v0s22.74,43.63,29.45,91.89h-40C96.76,101.52,107,74.39,107.28,73.56Z"/><path class="e" d="M107.28,73.56c-.32.83-10.52,28-10.52,91.87H77.84C84.48,117.78,106.72,74.64,107.28,73.56Z"/><path class="d" d="M580.84,133.38H549.42A991.54,991.54,0,0,1,551.9,32.49S576.83,82.93,580.84,133.38Z"/><path class="i" d="M549.42,133.38H523C527,82.93,551.9,32.49,551.9,32.49A991.54,991.54,0,0,0,549.42,133.38Z"/><path class="i" d="M664.22,146.85l41.84,41.89-13.21,13.4-16.07,16.31h-97A36,36,0,0,0,554.24,229l-27.9,28H434.77L411.1,233.41v-.09H323.55a21.42,21.42,0,0,0,12.86-6.27l18.27-18.54A51,51,0,0,1,391,193.3h9.11a20.13,20.13,0,0,0,12.76-4.56L449.3,159l18.82-15.36a46.8,46.8,0,0,1,29.59-10.54h133.4A46.79,46.79,0,0,1,664.22,146.85Z"/><path class="e" d="M579.74,218.45h53.89v0a36,36,0,0,0-25.49,10.58l-17.36,17.4A36,36,0,0,1,565.3,257h-39l27.9-28A36,36,0,0,1,579.74,218.45Z"/><path class="i" d="M375.38,182.63l-6.68,5.47A20,20,0,0,1,356,192.62h-8.65a50,50,0,0,0-35.63,14.93l-19,19.33a21.62,21.62,0,0,1-15.39,6.44v.15H243.65a36,36,0,0,0-24.12,9.27l-19.31,17.43h-91V260L67.41,218.48h-27l39-39.62a51,51,0,0,1,36.33-15.2h9.12a20.13,20.13,0,0,0,12.76-4.56l22.6-18.49a49,49,0,0,1,31-11.07H298a47.06,47.06,0,0,1,31.73,12.32Z"/><path class="e" d="M323.55,233.32a20.51,20.51,0,0,1-2.48.15H277.33v-.15a21.62,21.62,0,0,0,15.39-6.44l19-19.33a50,50,0,0,1,35.63-14.93H356a20,20,0,0,0,12.67-4.52l6.68-5.47,17.25-14.11A42,42,0,0,1,419.22,159H449.3l-36.4,29.71a20.13,20.13,0,0,1-12.76,4.56H391a51,51,0,0,0-36.35,15.21l-18.27,18.54A21.42,21.42,0,0,1,323.55,233.32Z"/><path class="e" d="M146.85,129.54h44.42a49,49,0,0,0-31,11.07l-22.6,18.49a20.13,20.13,0,0,1-12.76,4.56h-9.12a51,51,0,0,0-36.33,15.2l-39,39.62H-.43l39.8-40.43A50,50,0,0,1,75,163.13h8.66a20,20,0,0,0,12.66-4.52L120.25,139A42,42,0,0,1,146.85,129.54Z"/><path class="e" d="M230,182,208.4,160.42a4,4,0,0,1,2.83-6.83h70.82a9,9,0,0,0,6.36-15.36l-8.72-8.69H251.86l8.73,8.69a3,3,0,0,1-2.12,5.12H185.23a9,9,0,0,0-6.36,15.36L202.18,182Z"/><path class="e" d="M576.13,185.82,590.88,171H550.39A9,9,0,0,1,544,155.68l22.3-22.26,28.06-.24-22.54,22.5A3,3,0,0,0,574,160.8h37.51a7.2,7.2,0,0,1,5.09,12.29l-12.72,12.74Z"/><path class="f" d="M556.27,186H533c4.18-55.76-5.4-99.75-5.64-100.87C527.94,86.33,552.31,136.15,556.27,186Z"/><path class="c" d="M527.34,85.1c.24,1.12,9.82,45.11,5.64,100.87H498.4c4-50.45,28.93-100.89,28.93-100.89A0,0,0,0,0,527.34,85.1Z"/><path class="d" d="M69.76,131.72s22.74,41.12,29.45,86.6h-37c2.12-55.61,7.42-85.65,7.58-86.58Z"/><path class="i" d="M69.75,131.74c-.16.93-5.46,31-7.58,86.58H40.31C46.93,173.43,69.17,132.79,69.75,131.74Z"/><path class="f" d="M395.06,233.13H366.71c-1.1-56.33-1.1-86.59-1.1-86.59S388.35,187.66,395.06,233.13Z"/><path class="c" d="M365.61,146.54s0,30.26,1.1,86.59H336.16C342.87,187.66,365.61,146.54,365.61,146.54Z"/><path class="d" d="M401.5,146.56a0,0,0,0,0,0,0s22.74,41.12,29.45,86.6h-37C396,177.54,401.34,147.49,401.5,146.56Z"/><path class="i" d="M401.5,146.56c-.16.93-5.46,31-7.58,86.58H372.06C378.69,188.25,400.92,147.61,401.5,146.56Z"/><polygon class="g" points="674.44 153.21 674.44 189.13 667.82 189.13 667.82 159.81 661 159.81 661 153.21 674.44 153.21"/><path class="e" d="M667.82,63.82s22.8,38.94,26.47,89.39H654.18C658,97.6,667.52,64.85,667.81,63.84Z"/><rect class="h" x="661" y="159.81" width="6.82" height="29.32"/><path class="b" d="M667.81,63.84c-.29,1-9.82,33.76-13.63,89.37H641.35C645,103.44,667.21,64.87,667.81,63.84Z"/><rect class="b" x="674.43" y="136.4" width="4.99" height="4.99" transform="translate(1353.85 277.78) rotate(-180)"/><circle class="c" cx="112.53" cy="195.35" r="19.72"/><circle class="c" cx="248.98" cy="179" r="15.63"/><circle class="d" cx="287.38" cy="197.98" r="19.48"/><circle class="d" cx="264.21" cy="189.07" r="15.23"/><circle class="c" cx="88.64" cy="203.44" r="19.48"/><path class="d" d="M81.94,218.5a19.83,19.83,0,1,0-36.68-15.07l-.39-.08a19.43,19.43,0,0,0-4-.4,19.83,19.83,0,0,0-19.36,15.54Z"/><circle class="c" cx="461.57" cy="202.14" r="19.82"/><path class="d" d="M425.85,207.37a13,13,0,1,1,3.5,7.9h0a12.91,12.91,0,1,1-3.5-7.89"/><path class="c" d="M643,178.6A19.48,19.48,0,1,0,637.57,200h0c.18.48.37,1,.59,1.42a19.5,19.5,0,0,0,.42,17.12h34.57a19.53,19.53,0,0,0,.4-17.15A19.48,19.48,0,0,0,643,178.6"/><path class="d" d="M692.63,202.37a15.66,15.66,0,1,0-25.91,16.09h10.06Z"/><polygon class="a" points="179.07 181.98 160.38 200.82 160.38 200.86 133.65 200.86 133.65 200.82 152.33 181.98 179.07 181.98"/><polygon class="a" points="150.82 218.49 141.08 227.95 131.33 218.49 150.82 218.49"/><polygon class="a" points="125.83 243.27 109.22 259.81 109.04 259.99 67.41 218.49 84.68 200.86 111.41 200.86 97.47 215.09 125.83 243.27"/><path class="j" d="M109.22,259.81l16.61-16.54L97.47,215.09l13.94-14.23h49v0L179.07,182h81.07l38.8,38.58-6.22,6.32a21.62,21.62,0,0,1-15.39,6.44l-33.68.15a36,36,0,0,0-24.12,9.27l-19.31,17.43h-91L109,260ZM141.08,228l9.74-9.46H131.33Z"/><path class="j" d="M628.29,185.82l32.55,32.63h-81.1A36,36,0,0,0,554.24,229l-27.9,28H434.81l14-14-14-14L454,209.62h39.73l23.69-23.8Z"/><polygon class="a" points="517.46 185.82 493.77 209.62 474.52 209.62 498.35 185.82 517.46 185.82"/><polygon class="a" points="454.04 209.62 434.78 228.97 448.82 242.98 434.81 257.03 434.77 257.03 411.1 233.41 434.93 209.62 454.04 209.62"/><path class="d" d="M235.74,129.53a153.76,153.76,0,0,0-9.77-13.3s9.94,2.24,15.33,6.65h0c5.4-4.41,15.34-6.65,15.34-6.65a152.14,152.14,0,0,0-9.77,13.3Z"/><path class="d" d="M284.64,233.47a153.76,153.76,0,0,1,9.77-13.3s-9.94,2.24-15.34,6.65h0c-5.39-4.42-15.34-6.66-15.34-6.66a152,152,0,0,1,9.78,13.31Z"/><path class="d" d="M613.13,133.12a150.85,150.85,0,0,0-9.78-13.3s9.95,2.24,15.34,6.65h0c5.4-4.41,15.34-6.65,15.34-6.65a152.14,152.14,0,0,0-9.77,13.3Z"/><path class="e" d="M259.26,233.34a19.26,19.26,0,0,0-4.58-5.74,19.47,19.47,0,0,0-27.46,2.12,20,20,0,0,0-2.29,3.31h0l-.31-.27a19.49,19.49,0,0,0-27.47,2.13,19.13,19.13,0,0,0-2.69,4.09h0a19.48,19.48,0,0,0-28.94,21.2h34.7l19.31-17.43a36,36,0,0,1,24.12-9.27l15.65-.15"/><rect class="c" x="600.18" y="105.61" width="4.99" height="4.99" transform="translate(1205.35 216.21) rotate(-180)"/><rect class="i" x="75.35" y="171.21" width="4.99" height="4.99" transform="translate(155.69 347.4) rotate(-180)"/><rect class="i" x="567.28" y="121.57" width="4.99" height="4.99" transform="translate(1139.55 248.14) rotate(-180)"/><rect class="i" x="408.61" y="199.64" width="4.99" height="4.99" transform="translate(822.2 404.28) rotate(-180)"/><rect class="e" x="113.8" y="123.64" width="4.99" height="4.99" transform="translate(232.58 252.26) rotate(-180)"/></svg>